<svg id="Layer_1" xmlns="http://www.w3.org/2000/svg" viewBox="0 0 538.6 65.2"><style>.st0{fill:#c00}</style><path class="st0" d="M99.1 48.6v-32c0-3.5 2.4-5.5 5.5-5.5l6.8-.8v-8h-49v8l7 .8c3 0 5.5 2.2 5.5 5.2v10.5H36.6V16.5c0-3 2-5.2 5-5.2l7.4-1v-8H0v8l7.4 1c3 0 5 2.3 5 5.4v32.6c0 3-2 5-5 5l-7.3.8v8h49v-8l-7.5-.8c-3.2-.4-4.8-2-4.8-5V38.8h38v10c0 3-2.2 5.3-5.3 5.3l-7.2.7V63h49v-8.3l-6.7-.4c-4-.2-5.5-2.7-5.5-5.7zm186.5-38.3l6.8.7c3 0 5.3 1.8 5.3 4.8v31.8L266.6 6.3l-.5-1c-1.6-2-2.6-3.2-6-3.2h-43v8l7 1c3.4.2 5.3 2 5.3 5v32.6c0 3-1.5 5-5 5.4l-7.3.7V63h38.5v-8.3l-6.3-.6c-3 0-5.5-1.8-5.5-4.8V17.7l31.6 41.8c1.7 2.2 3.2 3.6 6 3.6h31V15.9c0-3 2.2-5 5.2-5l6-.7v-8h-38v8.1zM163.8 0c-31-.5-49.7 11.2-50 32.5 0 21.7 19 33.2 50.3 32.7 30.8.5 49.4-10.8 50-31.8v-.1c0-21.8-19-33.8-50.3-33.3zm22.3 35.3c0 12-8.5 18.2-18.4 18.2h-7.8c-10 0-17.6-7.3-17.6-18.2V30c0-10.5 7.5-18.5 18.4-18.5h6.2c11 0 19.3 7 19.3 18.5v5.3h-.1zm207.3-33h-64v8l6.8.8c2.8.3 4.7 1.7 4.7 4.7v33.5c0 3-1.8 4.6-5 5l-7.3.4v8.4h64.7c19.2 0 36.7-9.7 36.7-30.4 0-20-16.5-30.4-36.6-30.4zm-6.5 49h-22V13.8h22c6.2 0 14 2 14 19s-7.8 18.7-14 18.7v-.2z"/><path class="st0" d="M534.6 54.3c-3.2 0-5.6-1.8-7.2-4.2L500.2 8.3l-2-2.7c-1.6-2.4-3.3-3.3-6.4-3.3h-46.2v8l9.5 1.2c2.4.4 4.2.8 4.2 3.2 0 1-.6 2.2-1 3l-20.5 33c-1.6 2.4-3 3.3-6.5 3.6l-7 .5v8.4h39v-8.5l-5.2-.5c-2 0-4-1-4-3 0-.7.2-1.3.5-2l3.2-5h37.8l2 3.6s1.7 1.8 1.2 4.4c-.3 1.6-3.4 2-3.4 2l-8 .5v8.4h51.2v-8.5l-4-.5v.2zm-70-20.6l11.5-19 12.2 19h-23.7z"/></svg>